<?xml version="1.0" encoding="utf-8"?>
<!-- Generator: Adobe Illustrator 19.0.1, SVG Export Plug-In . SVG Version: 6.00 Build 0)  -->
<svg version="1.1" id="burgerSymbol" xmlns="http://www.w3.org/2000/svg" xmlns:xlink="http://www.w3.org/1999/xlink" x="0px"
	 y="0px" viewBox="0 0 289.7 161.3" style="enable-background:new 0 0 289.7 161.3;" xml:space="preserve">
<style type="text/css">
	.st0{fill:#A8A8A8;stroke:#A8A8A8;stroke-miterlimit:10;}
	.st1{fill:none;stroke:#A8A8A8;stroke-width:14;stroke-miterlimit:10;}
</style>
<g>
	<path class="st0" d="M236,52.8H80.1c-4.6,0-8.3-3.7-8.3-8.3v0c0-4.6,3.7-8.3,8.3-8.3H236c4.6,0,8.3,3.7,8.3,8.3v0
		C244.3,49.1,240.6,52.8,236,52.8z"/>
	<circle class="st0" cx="53.9" cy="44.5" r="8.3"/>
</g>
<g>
	<path class="st0" d="M236,88.8H80.1c-4.6,0-8.3-3.7-8.3-8.3v0c0-4.6,3.7-8.3,8.3-8.3H236c4.6,0,8.3,3.7,8.3,8.3v0
		C244.3,85.1,240.6,88.8,236,88.8z"/>
	<circle class="st0" cx="53.9" cy="80.5" r="8.3"/>
</g>
<g>
	<path class="st0" d="M236,124.8H80.1c-4.6,0-8.3-3.7-8.3-8.3v0c0-4.6,3.7-8.3,8.3-8.3H236c4.6,0,8.3,3.7,8.3,8.3v0
		C244.3,121.1,240.6,124.8,236,124.8z"/>
	<circle class="st0" cx="53.9" cy="116.5" r="8.3"/>
</g>
<path class="st1" d="M269.2,152.5H21.5c-6.6,0-12-5.4-12-12v-120c0-6.6,5.4-12,12-12h247.7c6.6,0,12,5.4,12,12v120
	C281.2,147.1,275.8,152.5,269.2,152.5z"/>
</svg>
